#!OML:ASF C:\Vicon Data\Big\jianyuan-11\jianyuan\Session 1\male.ASF
:FULLY-SPECIFIED
:DEGREES
223
root -15.585232 16.556614 -8.096971 -17.072169 -43.271830 16.355481
lowerback 2.898381 1.204178 -5.434068 
upperback 6.130823 1.863281 -0.748473 
thorax 4.597921 0.797391 2.289541 
lowerneck -13.521395 -6.254046 -10.669696 
upperneck 24.538908 -8.146157 9.379183 
head 10.996046 -3.441613 4.117676 
rclavicle 0.000000 0.000000 
rhumerus -47.826300 -31.492959 -65.857530 
rradius 36.907964 
rwrist -1.073850 
rhand -18.773703 -0.964920 
rfingers 0.000000 
rthumb 7.523552 -30.811123 
lclavicle 0.000000 0.000000 
lhumerus -15.124120 8.106279 92.380652 
lradius 45.327113 
lwrist -8.272557 
lhand -14.031318 -8.854948 
lfingers 0.000000 
lthumb 12.098943 20.775255 
rfemur -32.396880 -0.845380 10.562759 
rtibia 46.976644 
rfoot -2.204215 -6.987991 
rtoes 8.849397 
lfemur 11.779602 -1.500781 -31.518355 
ltibia 10.922711 
lfoot -14.331180 2.884489 
ltoes -4.175734 
224
root -15.626714 16.560144 -8.059052 -17.004255 -43.374033 16.211553
lowerback 2.891179 1.188570 -5.319920 
upperback 6.142942 1.840656 -0.702528 
thorax 4.617086 0.788979 2.273742 
lowerneck -13.573231 -6.252915 -10.620058 
upperneck 24.580538 -8.126384 9.269471 
head 11.011992 -3.439307 4.071248 
rclavicle 0.000000 0.000000 
rhumerus -47.867292 -31.532300 -65.742099 
rradius 36.898083 
rwrist -1.037870 
rhand -18.843474 -0.937319 
rfingers 0.000000 
rthumb 7.456209 -30.785946 
lclavicle 0.000000 0.000000 
lhumerus -14.934968 7.760939 92.445786 
lradius 45.681559 
lwrist -8.032673 
lhand -14.036635 -8.825634 
lfingers 0.000000 
lthumb 12.093815 20.804852 
rfemur -32.273938 -0.569317 10.576594 
rtibia 45.961447 
rfoot -2.302278 -7.030214 
rtoes 8.648606 
lfemur 12.338611 -1.478171 -31.405575 
ltibia 10.269213 
lfoot -14.252255 3.170441 
ltoes -4.609558 
225
root -15.667810 16.562909 -8.020887 -16.981914 -43.426862 16.224266
lowerback 2.775163 1.160617 -5.332855 
upperback 6.182018 1.812131 -0.677802 
thorax 4.725501 0.770065 2.309991 
lowerneck -13.657355 -6.246241 -10.692015 
upperneck 24.563209 -8.098744 9.284864 
head 11.023114 -3.431564 4.091053 
rclavicle 0.000000 0.000000 
rhumerus -47.780279 -31.547539 -65.667008 
rradius 36.867912 
rwrist -1.060545 
rhand -18.817358 -0.940232 
rfingers 0.000000 
rthumb 7.481410 -30.787973 
lclavicle 0.000000 0.000000 
lhumerus -14.699924 7.399180 92.542753 
lradius 46.048288 
lwrist -7.640153 
lhand -14.043456 -8.902446 
lfingers 0.000000 
lthumb 12.087178 20.728470 
rfemur -32.226499 -0.363485 10.458365 
rtibia 45.009658 
rfoot -2.381038 -7.066211 
rtoes 7.709672 
lfemur 12.893253 -1.392867 -31.409201 
ltibia 9.505385 
lfoot -14.075896 3.411839 
ltoes -4.910789 
226
root -15.710131 16.564323 -7.984012 -17.001414 -43.506987 16.276132
lowerback 2.691138 1.161884 -5.371085 
upperback 6.182127 1.818450 -0.675700 
thorax 4.772006 0.769631 2.335730 
lowerneck -13.635291 -6.234774 -10.766892 
upperneck 24.559578 -8.085073 9.359109 
head 11.022829 -3.424373 4.133957 
rclavicle 0.000000 0.000000 
rhumerus -47.814775 -31.606825 -65.554265 
rradius 36.842211 
rwrist -1.077288 
rhand -18.880523 -0.971660 
rfingers 0.000000 
rthumb 7.420464 -30.821518 
lclavicle 0.000000 0.000000 
lhumerus -14.565684 7.002662 92.590004 
lradius 46.426971 
lwrist -7.347494 
lhand -14.040706 -8.959752 
lfingers 0.000000 
lthumb 12.089840 20.671014 
rfemur -32.170103 -0.118489 10.320431 
rtibia 44.091110 
rfoot -2.524423 -7.081692 
rtoes 7.510890 
lfemur 13.484355 -1.273472 -31.422042 
ltibia 8.690039 
lfoot -13.869385 3.676073 
ltoes -5.220021 
227
root -15.753137 16.564983 -7.947856 -17.044281 -43.602357 16.349862
lowerback 2.624979 1.179470 -5.423441 
upperback 6.160476 1.844226 -0.686231 
thorax 4.783938 0.779519 2.355601 
lowerneck -13.553927 -6.220630 -10.843400 
upperneck 24.563595 -8.079203 9.466220 
head 11.016174 -3.417490 4.189761 
rclavicle 0.000000 0.000000 
rhumerus -47.917125 -31.690707 -65.420497 
rradius 36.819007 
rwrist -1.090719 
rhand -18.993546 -1.019012 
rfingers 0.000000 
rthumb 7.311410 -30.872663 
lclavicle 0.000000 0.000000 
lhumerus -14.487737 6.586732 92.609491 
lradius 46.812327 
lwrist -7.110602 
lhand -14.032612 -9.006167 
lfingers 0.000000 
lthumb 12.097695 20.624126 
rfemur -32.108705 0.148378 10.171493 
rtibia 43.191124 
rfoot -2.703899 -7.085715 
rtoes 7.725442 
lfemur 14.095817 -1.135038 -31.440030 
ltibia 7.845924 
lfoot -13.646038 3.953060 
ltoes -5.533720 
228
root -15.795590 16.566040 -7.911147 -17.185842 -43.627932 16.489700
lowerback 2.607102 1.159392 -5.543124 
upperback 6.178634 1.822022 -0.702007 
thorax 4.813795 0.762780 2.406487 
lowerneck -13.558213 -6.215159 -10.810678 
upperneck 24.558674 -8.063711 9.403794 
head 11.008836 -3.415109 4.162836 
rclavicle 0.000000 0.000000 
rhumerus -47.950651 -31.700699 -65.385109 
rradius 36.867392 
rwrist -1.151299 
rhand -19.022498 -1.068352 
rfingers 0.000000 
rthumb 7.283469 -30.922992 
lclavicle 0.000000 0.000000 
lhumerus -14.311629 6.363358 92.648824 
lradius 47.141713 
lwrist -7.001995 
lhand -13.969947 -9.099863 
lfingers 0.000000 
lthumb 12.158100 20.526823 
rfemur -31.985429 0.398864 9.939702 
rtibia 42.360392 
rfoot -2.941047 -7.183434 
rtoes 8.578567 
lfemur 14.889371 -1.035170 -31.536461 
ltibia 6.765552 
lfoot -13.348445 4.210915 
ltoes -4.935861 
229
root -15.837292 16.566869 -7.874836 -17.277932 -43.646258 16.586047
lowerback 2.588084 1.134071 -5.624073 
upperback 6.182337 1.791132 -0.717832 
thorax 4.830262 0.743711 2.435418 
lowerneck -13.554589 -6.209159 -10.759593 
upperneck 24.564963 -8.049324 9.329018 
head 11.002791 -3.412708 4.128514 
rclavicle 0.000000 0.000000 
rhumerus -47.993573 -31.727117 -65.327714 
rradius 36.890054 
rwrist -1.198870 
rhand -19.027046 -1.086720 
rfingers 0.000000 
rthumb 7.279081 -30.941524 
lclavicle 0.000000 0.000000 
lhumerus -14.162479 6.093576 92.669818 
lradius 47.487322 
lwrist -6.819438 
lhand -13.931320 -9.132236 
lfingers 0.000000 
lthumb 12.195338 20.492235 
rfemur -31.879035 0.627108 9.740661 
rtibia 41.537903 
rfoot -3.140497 -7.286623 
rtoes 9.079399 
lfemur 15.717194 -0.955786 -31.601300 
ltibia 5.573056 
lfoot -13.023098 4.529792 
ltoes -4.424149 
230
root -15.877173 16.567108 -7.839547 -17.241296 -43.651307 16.570599
lowerback 2.563044 1.098303 -5.604896 
upperback 6.147697 1.741972 -0.733431 
thorax 4.812471 0.720651 2.408067 
lowerneck -13.525752 -6.201278 -10.670396 
upperneck 24.599531 -8.038302 9.234978 
head 10.999985 -3.409962 4.081408 
rclavicle 0.000000 0.000000 
rhumerus -48.064262 -31.799000 -65.209440 
rradius 36.844440 
rwrist -1.211187 
rhand -18.976895 -1.028461 
rfingers 0.000000 
rthumb 7.327489 -30.881582 
lclavicle 0.000000 0.000000 
lhumerus -14.086416 5.696408 92.644205 
lradius 47.876710 
lwrist -6.445734 
lhand -13.955679 -9.010017 
lfingers 0.000000 
lthumb 12.171874 20.615882 
rfemur -31.818436 0.801505 9.628000 
rtibia 40.731185 
rfoot -3.243021 -7.397111 
rtoes 8.667807 
lfemur 16.617587 -0.924440 -31.582912 
ltibia 4.119298 
lfoot -12.634128 5.000652 
ltoes -4.185633 
231
root -15.918705 16.567533 -7.804040 -17.221848 -43.676178 16.591702
lowerback 2.493352 1.067296 -5.633122 
upperback 6.133395 1.703361 -0.733004 
thorax 4.839650 0.698799 2.425238 
lowerneck -13.500039 -6.182309 -10.629358 
upperneck 24.579010 -8.006617 9.170448 
head 10.978462 -3.400477 4.054960 
rclavicle 0.000000 0.000000 
rhumerus -48.083913 -31.865753 -65.090782 
rradius 36.794942 
rwrist -1.188435 
rhand -18.953065 -0.973580 
rfingers 0.000000 
rthumb 7.350475 -30.825914 
lclavicle 0.000000 0.000000 
lhumerus -13.950673 5.429095 92.658581 
lradius 48.211386 
lwrist -6.275025 
lhand -13.963696 -8.977892 
lfingers 0.000000 
lthumb 12.164167 20.648473 
rfemur -31.772086 0.992625 9.498503 
rtibia 39.951574 
rfoot -3.424562 -7.509394 
rtoes 8.288063 
lfemur 17.719700 -0.869021 -31.580641 
ltibia 2.242465 
lfoot -12.056321 5.625193 
ltoes -4.120336 
232
root -15.961278 16.568075 -7.768396 -17.213239 -43.713547 16.635854
lowerback 2.395501 1.039291 -5.691240 
upperback 6.131918 1.671403 -0.722473 
thorax 4.895189 0.677709 2.470484 
lowerneck -13.476295 -6.156347 -10.618692 
upperneck 24.523748 -7.961902 9.124527 
head 10.945137 -3.386743 4.041539 
rclavicle 0.000000 0.000000 
rhumerus -48.071378 -31.929271 -64.971882 
rradius 36.742995 
rwrist -1.143569 
rhand -18.945833 -0.920829 
rfingers 0.000000 
rthumb 7.357429 -30.772942 
lclavicle 0.000000 0.000000 
lhumerus -13.777294 5.243669 92.698175 
lradius 48.511560 
lwrist -6.232329 
lhand -13.961406 -9.002582 
lfingers 0.000000 
lthumb 12.166397 20.623645 
rfemur -31.734723 1.194292 9.358390 
rtibia 39.189057 
rfoot -3.655932 -7.622811 
rtoes 7.928402 
lfemur 18.949021 -0.798421 -31.588536 
ltibia 0.098834 
lfoot -11.359431 6.346647 
ltoes -4.164274 
